<?xml version="1.0" encoding="UTF-8" standalone="no"?>
<svg
   xmlns:dc="http://purl.org/dc/elements/1.1/"
   xmlns:cc="http://creativecommons.org/ns#"
   xmlns:rdf="http://www.w3.org/1999/02/22-rdf-syntax-ns#"
   xmlns:svg="http://www.w3.org/2000/svg"
   xmlns="http://www.w3.org/2000/svg"
   xmlns:sodipodi="http://sodipodi.sourceforge.net/DTD/sodipodi-0.dtd"
   xmlns:inkscape="http://www.inkscape.org/namespaces/inkscape"
   width="21.766085mm"
   height="12.286388mm"
   viewBox="0 0 21.766085 12.286388"
   version="1.1"
   id="svg916"
   inkscape:version="1.0.1 (3bc2e813f5, 2020-09-07)"
   sodipodi:docname="Mitochondria.svg">
  <defs
     id="defs910">
    <inkscape:path-effect
       effect="powerstroke"
       id="path-effect66"
       is_visible="true"
       lpeversion="1"
       offset_points="0.75292136,2.5056518"
       sort_points="true"
       interpolator_type="CentripetalCatmullRom"
       interpolator_beta="0.75"
       start_linecap_type="round"
       linejoin_type="spiro"
       miter_limit="4"
       scale_width="1"
       end_linecap_type="round" />
    <inkscape:path-effect
       effect="simplify"
       id="path-effect64"
       is_visible="true"
       lpeversion="1"
       steps="1"
       threshold="0.012723493"
       smooth_angles="0"
       helper_size="0"
       simplify_individual_paths="false"
       simplify_just_coalesce="false"
       step="1" />
    <inkscape:path-effect
       effect="powerstroke"
       id="path-effect992"
       is_visible="true"
       lpeversion="1"
       offset_points="0.75292136,2.5056518"
       sort_points="true"
       interpolator_type="CentripetalCatmullRom"
       interpolator_beta="0.75"
       start_linecap_type="round"
       linejoin_type="spiro"
       miter_limit="4"
       scale_width="1"
       end_linecap_type="round" />
    <inkscape:path-effect
       effect="simplify"
       id="path-effect990"
       is_visible="true"
       lpeversion="1"
       steps="1"
       threshold="0.012723493"
       smooth_angles="0"
       helper_size="0"
       simplify_individual_paths="false"
       simplify_just_coalesce="false"
       step="1" />
    <inkscape:path-effect
       effect="powerstroke"
       id="path-effect985"
       is_visible="true"
       lpeversion="1"
       offset_points="1.121758,2.5056518"
       sort_points="true"
       interpolator_type="CentripetalCatmullRom"
       interpolator_beta="0.75"
       start_linecap_type="round"
       linejoin_type="spiro"
       miter_limit="4"
       scale_width="1"
       end_linecap_type="round" />
    <inkscape:path-effect
       effect="simplify"
       id="path-effect983"
       is_visible="true"
       lpeversion="1"
       steps="1"
       threshold="0.012723493"
       smooth_angles="0"
       helper_size="0"
       simplify_individual_paths="false"
       simplify_just_coalesce="false"
       step="1" />
    <inkscape:path-effect
       effect="powerstroke"
       id="path-effect978"
       is_visible="true"
       lpeversion="1"
       offset_points="1.3135506,2.5056518"
       sort_points="true"
       interpolator_type="CentripetalCatmullRom"
       interpolator_beta="0.75"
       start_linecap_type="round"
       linejoin_type="spiro"
       miter_limit="4"
       scale_width="1"
       end_linecap_type="round" />
    <inkscape:path-effect
       effect="simplify"
       id="path-effect976"
       is_visible="true"
       lpeversion="1"
       steps="1"
       threshold="0.012723493"
       smooth_angles="0"
       helper_size="0"
       simplify_individual_paths="false"
       simplify_just_coalesce="false"
       step="1" />
    <inkscape:path-effect
       effect="powerstroke"
       id="path-effect969"
       is_visible="true"
       lpeversion="1"
       offset_points="1.0643837,2.5056518"
       sort_points="true"
       interpolator_type="CentripetalCatmullRom"
       interpolator_beta="0.75"
       start_linecap_type="round"
       linejoin_type="spiro"
       miter_limit="4"
       scale_width="1"
       end_linecap_type="round" />
    <inkscape:path-effect
       effect="simplify"
       id="path-effect967"
       is_visible="true"
       lpeversion="1"
       steps="1"
       threshold="0.012723493"
       smooth_angles="0"
       helper_size="0"
       simplify_individual_paths="false"
       simplify_just_coalesce="false"
       step="1" />
    <inkscape:path-effect
       effect="powerstroke"
       id="path-effect962"
       is_visible="true"
       lpeversion="1"
       offset_points="0.99263988,2.5056518"
       sort_points="true"
       interpolator_type="CentripetalCatmullRom"
       interpolator_beta="0.75"
       start_linecap_type="round"
       linejoin_type="spiro"
       miter_limit="4"
       scale_width="1"
       end_linecap_type="round" />
    <inkscape:path-effect
       effect="simplify"
       id="path-effect960"
       is_visible="true"
       lpeversion="1"
       steps="1"
       threshold="0.012723493"
       smooth_angles="0"
       helper_size="0"
       simplify_individual_paths="false"
       simplify_just_coalesce="false"
       step="1" />
    <inkscape:path-effect
       effect="powerstroke"
       id="path-effect955"
       is_visible="true"
       lpeversion="1"
       offset_points="0.92791666,2.5056518"
       sort_points="true"
       interpolator_type="CentripetalCatmullRom"
       interpolator_beta="0.75"
       start_linecap_type="round"
       linejoin_type="spiro"
       miter_limit="4"
       scale_width="1"
       end_linecap_type="round" />
    <inkscape:path-effect
       effect="simplify"
       id="path-effect953"
       is_visible="true"
       lpeversion="1"
       steps="1"
       threshold="0.012723493"
       smooth_angles="0"
       helper_size="0"
       simplify_individual_paths="false"
       simplify_just_coalesce="false"
       step="1" />
    <inkscape:path-effect
       effect="powerstroke"
       id="path-effect948"
       is_visible="true"
       lpeversion="1"
       offset_points="1.08475,2.5056518"
       sort_points="true"
       interpolator_type="CentripetalCatmullRom"
       interpolator_beta="0.75"
       start_linecap_type="round"
       linejoin_type="spiro"
       miter_limit="4"
       scale_width="1"
       end_linecap_type="round" />
    <inkscape:path-effect
       effect="simplify"
       id="path-effect946"
       is_visible="true"
       lpeversion="1"
       steps="1"
       threshold="0.012723493"
       smooth_angles="0"
       helper_size="0"
       simplify_individual_paths="false"
       simplify_just_coalesce="false"
       step="1" />
    <inkscape:path-effect
       effect="powerstroke"
       id="path-effect1558"
       is_visible="true"
       lpeversion="1"
       offset_points="0.53290279,1.7717634"
       sort_points="true"
       interpolator_type="CentripetalCatmullRom"
       interpolator_beta="0.75"
       start_linecap_type="round"
       linejoin_type="spiro"
       miter_limit="4"
       scale_width="1"
       end_linecap_type="round" />
    <inkscape:path-effect
       effect="simplify"
       id="path-effect1556"
       is_visible="true"
       lpeversion="1"
       steps="1"
       threshold="0.012723493"
       smooth_angles="0"
       helper_size="0"
       simplify_individual_paths="false"
       simplify_just_coalesce="false"
       step="1" />
    <inkscape:path-effect
       effect="powerstroke"
       id="path-effect1551"
       is_visible="true"
       lpeversion="1"
       offset_points="1.4259525,1.7717634"
       sort_points="true"
       interpolator_type="CentripetalCatmullRom"
       interpolator_beta="0.75"
       start_linecap_type="round"
       linejoin_type="spiro"
       miter_limit="4"
       scale_width="1"
       end_linecap_type="round" />
    <inkscape:path-effect
       effect="simplify"
       id="path-effect1549"
       is_visible="true"
       lpeversion="1"
       steps="1"
       threshold="0.012723493"
       smooth_angles="0"
       helper_size="0"
       simplify_individual_paths="false"
       simplify_just_coalesce="false"
       step="1" />
    <inkscape:path-effect
       effect="powerstroke"
       id="path-effect1544"
       is_visible="true"
       lpeversion="1"
       offset_points="1.3958059,1.7717634"
       sort_points="true"
       interpolator_type="CentripetalCatmullRom"
       interpolator_beta="0.75"
       start_linecap_type="round"
       linejoin_type="spiro"
       miter_limit="4"
       scale_width="1"
       end_linecap_type="round" />
    <inkscape:path-effect
       effect="simplify"
       id="path-effect1542"
       is_visible="true"
       lpeversion="1"
       steps="1"
       threshold="0.012723493"
       smooth_angles="0"
       helper_size="0"
       simplify_individual_paths="false"
       simplify_just_coalesce="false"
       step="1" />
    <inkscape:path-effect
       effect="powerstroke"
       id="path-effect1537"
       is_visible="true"
       lpeversion="1"
       offset_points="0.1236447,1.7717634"
       sort_points="true"
       interpolator_type="CentripetalCatmullRom"
       interpolator_beta="0.75"
       start_linecap_type="round"
       linejoin_type="spiro"
       miter_limit="4"
       scale_width="1"
       end_linecap_type="round" />
    <inkscape:path-effect
       effect="simplify"
       id="path-effect1535"
       is_visible="true"
       lpeversion="1"
       steps="1"
       threshold="0.00837838"
       smooth_angles="0"
       helper_size="0"
       simplify_individual_paths="false"
       simplify_just_coalesce="false"
       step="1" />
    <inkscape:path-effect
       effect="powerstroke"
       id="path-effect1530"
       is_visible="true"
       lpeversion="1"
       offset_points="0.10312147,1.7717634"
       sort_points="true"
       interpolator_type="CentripetalCatmullRom"
       interpolator_beta="0.75"
       start_linecap_type="round"
       linejoin_type="spiro"
       miter_limit="4"
       scale_width="1"
       end_linecap_type="round" />
    <inkscape:path-effect
       effect="simplify"
       id="path-effect1528"
       is_visible="true"
       lpeversion="1"
       steps="1"
       threshold="0.6"
       smooth_angles="0"
       helper_size="0"
       simplify_individual_paths="false"
       simplify_just_coalesce="false"
       step="1" />
    <inkscape:path-effect
       effect="powerstroke"
       id="path-effect1523"
       is_visible="true"
       lpeversion="1"
       offset_points="0.26512622,1.7717634"
       sort_points="true"
       interpolator_type="CentripetalCatmullRom"
       interpolator_beta="0.75"
       start_linecap_type="round"
       linejoin_type="spiro"
       miter_limit="4"
       scale_width="1"
       end_linecap_type="round" />
    <inkscape:path-effect
       effect="simplify"
       id="path-effect1521"
       is_visible="true"
       lpeversion="1"
       steps="1"
       threshold="0.6"
       smooth_angles="0"
       helper_size="0"
       simplify_individual_paths="false"
       simplify_just_coalesce="false"
       step="1" />
    <inkscape:path-effect
       effect="powerstroke"
       id="path-effect1516"
       is_visible="true"
       lpeversion="1"
       offset_points="0.17584337,1.7717634"
       sort_points="true"
       interpolator_type="CentripetalCatmullRom"
       interpolator_beta="0.75"
       start_linecap_type="round"
       linejoin_type="spiro"
       miter_limit="4"
       scale_width="1"
       end_linecap_type="round" />
    <inkscape:path-effect
       effect="simplify"
       id="path-effect1514"
       is_visible="true"
       lpeversion="1"
       steps="1"
       threshold="0.6"
       smooth_angles="0"
       helper_size="0"
       simplify_individual_paths="false"
       simplify_just_coalesce="false"
       step="1" />
    <inkscape:path-effect
       effect="powerstroke"
       id="path-effect1509"
       is_visible="true"
       lpeversion="1"
       offset_points="0.39738744,1.7717634"
       sort_points="true"
       interpolator_type="CentripetalCatmullRom"
       interpolator_beta="0.75"
       start_linecap_type="round"
       linejoin_type="spiro"
       miter_limit="4"
       scale_width="1"
       end_linecap_type="round" />
    <inkscape:path-effect
       effect="simplify"
       id="path-effect1507"
       is_visible="true"
       lpeversion="1"
       steps="1"
       threshold="0.6"
       smooth_angles="0"
       helper_size="0"
       simplify_individual_paths="false"
       simplify_just_coalesce="false"
       step="1" />
    <inkscape:path-effect
       effect="powerstroke"
       id="path-effect1502"
       is_visible="true"
       lpeversion="1"
       offset_points="0.32532181,1.7717634"
       sort_points="true"
       interpolator_type="CentripetalCatmullRom"
       interpolator_beta="0.75"
       start_linecap_type="round"
       linejoin_type="spiro"
       miter_limit="4"
       scale_width="1"
       end_linecap_type="round" />
    <inkscape:path-effect
       effect="simplify"
       id="path-effect1500"
       is_visible="true"
       lpeversion="1"
       steps="1"
       threshold="0.6"
       smooth_angles="0"
       helper_size="0"
       simplify_individual_paths="false"
       simplify_just_coalesce="false"
       step="1" />
    <inkscape:path-effect
       effect="powerstroke"
       id="path-effect1495"
       is_visible="true"
       lpeversion="1"
       offset_points="0.5,0.5"
       sort_points="true"
       interpolator_type="CentripetalCatmullRom"
       interpolator_beta="0.75"
       start_linecap_type="round"
       linejoin_type="spiro"
       miter_limit="4"
       scale_width="1"
       end_linecap_type="round" />
    <inkscape:path-effect
       effect="simplify"
       id="path-effect1493"
       is_visible="true"
       lpeversion="1"
       steps="1"
       threshold="0.6"
       smooth_angles="0"
       helper_size="0"
       simplify_individual_paths="false"
       simplify_just_coalesce="false"
       step="1" />
    <inkscape:path-effect
       effect="powerstroke"
       id="path-effect1488"
       is_visible="true"
       lpeversion="1"
       offset_points="0.11935195,1.7717634"
       sort_points="true"
       interpolator_type="CentripetalCatmullRom"
       interpolator_beta="0.75"
       start_linecap_type="round"
       linejoin_type="spiro"
       miter_limit="4"
       scale_width="1"
       end_linecap_type="round" />
    <inkscape:path-effect
       effect="simplify"
       id="path-effect1486"
       is_visible="true"
       lpeversion="1"
       steps="1"
       threshold="0.6"
       smooth_angles="0"
       helper_size="0"
       simplify_individual_paths="false"
       simplify_just_coalesce="false"
       step="1" />
    <inkscape:path-effect
       effect="bspline"
       id="path-effect920"
       is_visible="true"
       lpeversion="1"
       weight="33.333333"
       steps="2"
       helper_size="0"
       apply_no_weight="true"
       apply_with_weight="true"
       only_selected="false" />
  </defs>
  <sodipodi:namedview
     id="base"
     pagecolor="#ffffff"
     bordercolor="#666666"
     borderopacity="1.0"
     inkscape:pageopacity="0.0"
     inkscape:pageshadow="2"
     inkscape:zoom="1.4"
     inkscape:cx="379.00488"
     inkscape:cy="103.14211"
     inkscape:document-units="mm"
     inkscape:current-layer="layer1"
     inkscape:document-rotation="0"
     showgrid="false"
     inkscape:window-width="1500"
     inkscape:window-height="938"
     inkscape:window-x="-6"
     inkscape:window-y="-6"
     inkscape:window-maximized="1"
     fit-margin-top="0"
     fit-margin-left="0"
     fit-margin-right="0"
     fit-margin-bottom="0" />
  <metadata
     id="metadata913">
    <rdf:RDF>
      <cc:Work
         rdf:about="">
        <dc:format>image/svg+xml</dc:format>
        <dc:type
           rdf:resource="http://purl.org/dc/dcmitype/StillImage" />
        <dc:title></dc:title>
      </cc:Work>
    </rdf:RDF>
  </metadata>
  <g
     inkscape:label="Layer 1"
     inkscape:groupmode="layer"
     id="layer1"
     transform="translate(-96.066965,-88.462255)">
    <g
       inkscape:label="Layer 1"
       id="layer1-8"
       transform="matrix(-0.18513331,-0.3010185,-0.31979306,0.20331537,158.5509,108.34896)"
       style="stroke-width:2.73277">
      <path
         style="fill:#006403;fill-opacity:1;fill-rule:evenodd;stroke:#006403;stroke-width:1.84439;stroke-linecap:round;stroke-linejoin:round;stroke-miterlimit:4;stroke-dasharray:none;stroke-opacity:1"
         d=""
         id="path1568"
         transform="scale(0.26458333)" />
      <path
         d="m 116.15709,79.472165 c -1.36058,-1.351368 -3.74899,-3.313029 -7.43819,-4.915182 -2.44077,-1.059984 -5.59309,-2.000251 -8.955206,-2.107984 -1.461168,-0.04682 -2.998744,0.06406 -4.521909,0.423355 -1.426814,0.33657 -2.864737,0.897188 -4.202706,1.768799 -0.03036,0.01978 -0.06067,0.03972 -0.09092,0.05981 -1.152931,0.765919 -2.316924,1.824936 -3.30549,3.287275 -0.877184,1.297576 -1.603843,2.894734 -2.063706,4.852044 -0.03786,0.161151 -0.07186,0.324176 -0.07735,0.489624 -0.0055,0.165448 0.01763,0.330367 0.04473,0.493673 0.438364,2.64153 1.289644,5.313483 2.572511,8.092439 1.129606,2.44696 2.535539,4.854564 4.169267,7.330625 2.896649,4.390135 6.445942,8.812545 9.338931,13.228305 0.0636,0.0971 0.13388,0.18963 0.2103,0.27696 1.59402,1.82154 3.74577,3.75359 6.20969,5.4555 2.39485,1.65419 5.16258,3.14344 8.02931,4.0389 1.4214,0.44399 2.89318,0.75006 4.37199,0.84589 1.47446,0.0955 2.97177,-0.0171 4.43179,-0.42272 1.46459,-0.40688 2.85903,-1.1 4.12276,-2.12528 1.26205,-1.02392 2.34857,-2.34217 3.24447,-3.95013 0.0827,-0.14839 0.15007,-0.30485 0.2011,-0.46688 1.28301,-4.07391 1.44235,-8.08571 0.78719,-11.89818 -0.66451,-3.86681 -2.15941,-7.492407 -4.11976,-10.772328 -2.01949,-3.378859 -4.55223,-6.42484 -7.26237,-9.059454 -2.81998,-2.741393 -5.86022,-5.066286 -8.82667,-6.925942 -2.33648,-1.633222 -3.4271,-2.412043 -4.61509,-3.303565 a 2.5056518,2.5056518 90 0 0 -3.00792,4.00819 c 1.2657,0.949835 2.41896,1.772169 4.80422,3.439242 0.0351,0.02454 0.0708,0.04818 0.10718,0.07088 2.70261,1.689526 5.47897,3.809741 8.04517,6.304431 2.45354,2.38516 4.69521,5.094626 6.45392,8.037169 1.70698,2.855982 2.94152,5.902602 3.48241,9.050112 0.51604,3.00286 0.40521,6.11935 -0.55124,9.29447 -0.58891,1.0039 -1.23536,1.74121 -1.89991,2.28037 -0.70824,0.5746 -1.47896,0.95845 -2.30688,1.18846 -0.83642,0.23237 -1.76099,0.31548 -2.76631,0.25034 -1.01171,-0.0656 -2.08735,-0.28031 -3.2019,-0.62845 -2.26665,-0.70802 -4.58013,-1.93158 -6.67537,-3.37883 -2.08869,-1.44273 -3.88157,-3.05188 -5.17538,-4.50635 -3.07135,-4.6672 -6.547855,-8.9975 -9.248784,-13.090997 -1.543012,-2.338572 -2.809364,-4.520399 -3.802221,-6.671133 -1.034518,-2.24098 -1.711266,-4.321132 -2.088823,-6.307547 0.320781,-1.153879 0.755784,-2.03486 1.21439,-2.713253 0.585741,-0.866459 1.260597,-1.477103 1.926832,-1.919699 0.01771,-0.01177 0.03548,-0.02345 0.05329,-0.03505 0.784699,-0.511187 1.666457,-0.865852 2.617881,-1.090282 1.019513,-0.240492 2.107121,-0.327431 3.210877,-0.292063 2.568002,0.08229 5.089472,0.814202 7.119502,1.695808 3.03225,1.316856 4.94257,2.920313 5.90293,3.874169 a 2.5056518,2.5056518 90 0 0 3.53146,-3.555544 z"
         id="path-1-03"
         inkscape:path-effect="#path-effect64;#path-effect66"
         inkscape:original-d="m 114.39136,81.249937 c -6.32279,-5.069465 -17.354133,-10.210338 -24.054259,-2.672696 -1.638358,1.843153 -2.545117,4.167307 -2.405426,6.681739 0.179078,3.223413 2.694174,5.686127 4.276312,8.285355 6.136246,10.080975 10.345613,19.947065 21.916103,25.123335 1.64666,0.73667 3.2896,1.63556 5.07812,1.87089 13.54559,1.78231 13.63153,-12.6667 9.88897,-21.648834 -1.19879,-2.877113 -2.96959,-5.503199 -4.81085,-8.018086 -4.88619,-6.673827 -10.95282,-9.885053 -17.37252,-14.699824"
         style="fill:#0044aa;fill-opacity:1;fill-rule:nonzero;stroke:none;stroke-width:43.451;stroke-linecap:butt;stroke-linejoin:miter;stroke-miterlimit:4;stroke-dasharray:none;stroke-opacity:1" />
      <path
         style="fill:#2a7fff;fill-opacity:1;fill-rule:nonzero;stroke:#006403;stroke-width:0;stroke-linecap:round;stroke-linejoin:round;stroke-miterlimit:4;stroke-dasharray:none;stroke-opacity:1"
         d="m 119.87725,118.68939 c -0.89874,-0.16227 -1.45315,-0.34606 -2.996,-0.9932 -4.35647,-1.82728 -7.59347,-4.02301 -10.88458,-7.38323 -2.72234,-2.7795 -4.22768,-4.93037 -8.785237,-12.552596 -2.771555,-4.635249 -4.163661,-6.88973 -5.514059,-8.929891 -0.664513,-1.003928 -1.288851,-2.01254 -1.387417,-2.24136 -0.60607,-1.406888 -0.472438,-3.063922 0.389198,-4.826105 2.341236,-4.788243 8.038252,-5.996309 14.757875,-3.129447 0.61995,0.264493 1.41131,0.635706 1.7586,0.82492 1.2976,0.706987 7.16954,4.963886 9.37027,6.793027 2.32552,1.932869 4.31378,3.956531 5.75178,5.854203 1.03644,1.367746 2.97879,4.316531 3.6099,5.480395 3.04094,5.607884 3.97391,11.554094 2.57525,16.413254 -0.48943,1.70038 -1.12381,2.66751 -2.27946,3.47506 -1.63057,1.13943 -4.13614,1.61762 -6.36612,1.21497 z"
         id="path1040" />
      <path
         style="fill:#0044aa;fill-opacity:1;fill-rule:evenodd;stroke:#006403;stroke-width:0.487996;stroke-linecap:round;stroke-linejoin:round;stroke-miterlimit:4;stroke-dasharray:none;stroke-opacity:1"
         d="m 110.05476,108.58688 c -0.48539,-0.0473 -0.92721,-0.3489 -1.13591,-0.77546 -0.17013,-0.34773 -0.15574,-0.81593 0.037,-1.20498 0.31226,-0.63017 1.30884,-1.69375 2.74097,-2.92525 0.4354,-0.37441 0.78311,-0.68928 0.77269,-0.6997 -0.0104,-0.0104 -0.38793,0.15473 -0.8389,0.36704 -2.35697,1.10959 -3.26638,1.39932 -4.26706,1.35946 -0.51439,-0.0205 -0.73611,-0.1138 -0.91563,-0.38533 -0.11442,-0.17306 -0.12561,-0.23078 -0.12451,-0.64226 0.001,-0.4047 0.0164,-0.48434 0.14594,-0.75923 0.21963,-0.46607 0.66938,-1.02544 1.4584,-1.81388 0.64839,-0.64791 1.80525,-1.726325 2.5626,-2.388815 0.16164,-0.14139 0.28639,-0.26458 0.27723,-0.27375 -0.009,-0.009 -0.60917,0.29652 -1.33333,0.67932 -1.40614,0.74328 -3.3456,1.702075 -4.02247,1.988555 -0.38111,0.1613 -0.44844,0.17473 -0.88496,0.17657 -0.54596,0.002 -0.73662,-0.0707 -1.02818,-0.39338 -0.19829,-0.21949 -0.24106,-0.39069 -0.21685,-0.86811 0.032,-0.630085 0.32803,-1.065945 1.62704,-2.395285 0.4314,-0.44146 1.48362,-1.46644 2.33828,-2.27773 0.85466,-0.81128 1.5462,-1.48278 1.53677,-1.49222 -0.009,-0.009 -0.8542,0.44497 -1.87725,1.00978 -2.23047,1.23142 -4.3598,2.31593 -4.89794,2.49461 -0.4738,0.15732 -1.02707,0.20553 -1.38188,0.12042 -0.20194,-0.0485 -0.30499,-0.11262 -0.52223,-0.32522 -0.314374,-0.30767 -0.396634,-0.52951 -0.361304,-0.97449 0.0601,-0.75677 0.434534,-1.21241 5.066194,-6.16481 1.55224,-1.65974 2.53939,-2.76034 2.49045,-2.77665 -0.0775,-0.0258 -2.16604,0.96727 -6.43475,3.05972 -3.838501,1.88158 -4.287841,2.07928 -4.725871,2.07928 -0.41906,0 -0.70754,-0.36488 -0.70754,-0.89491 0,-0.80746 0.38826,-1.06313 5.480661,-3.60908 4.21809,-2.10884 5.76024,-2.78269 7.2694,-3.17641 0.53674,-0.14002 1.22018,-0.15667 1.61627,-0.0394 0.70155,0.20777 0.95813,1.0785 0.5689,1.93061 -0.48646,1.06499 -1.54231,2.33651 -5.07055,6.1063 -0.54023,0.57722 -0.98223,1.06166 -0.98223,1.07654 0,0.0332 -0.21085,0.14598 2.38682,-1.27669 5.3863,-2.94993 6.27887,-3.37767 7.04592,-3.37658 0.43319,5.3e-4 0.76158,0.14967 0.94675,0.42972 0.12263,0.18547 0.13293,0.23625 0.13252,0.65323 -2.6e-4,0.34892 -0.0204,0.48986 -0.0881,0.61748 -0.32433,0.61156 -1.3862,1.72455 -4.24632,4.45078 -1.00695,0.95982 -1.83082,1.7561 -1.83082,1.76952 0,0.029 0.84868,-0.4126 3.28366,-1.70847 3.96438,-2.10978 4.16302,-2.20089 4.86645,-2.23222 0.44987,-0.02 0.48485,-0.0145 0.73152,0.11558 0.16253,0.0857 0.31216,0.21219 0.4016,0.33944 0.12642,0.17989 0.14255,0.24111 0.14255,0.5413 0,0.58446 -0.27335,1.00017 -1.25205,1.90409 -0.64136,0.59236 -2.4734,2.23153 -4.3231,3.86798 -0.72761,0.643725 -1.3297,1.187825 -1.33799,1.209105 -0.008,0.0213 0.53386,-0.22866 1.2048,-0.55545 1.64055,-0.799045 4.51499,-2.175835 5.59189,-2.678395 l 0.87575,-0.40868 0.4708,10e-4 c 0.54409,0.001 0.77156,0.0783 0.98781,0.33479 0.28378,0.33658 0.33038,0.65715 0.16211,1.11525 -0.18096,0.49267 -1.073,1.306865 -4.64788,4.242225 -2.15902,1.77278 -3.24102,2.68058 -3.22001,2.70159 0.0436,0.0436 2.1694,-0.78837 5.93672,-2.32329 2.91629,-1.18819 3.8724,-1.53588 4.2235,-1.53588 0.2407,0 0.52534,0.20685 0.66199,0.48106 0.15871,0.3185 0.17157,0.78473 0.0281,1.01998 -0.18128,0.29732 -0.73371,0.5962 -2.52766,1.36747 -3.19736,1.37467 -6.80444,2.78889 -8.5233,3.34173 -1.0331,0.33227 -1.76286,0.45695 -2.34351,0.4004 z m 6.24706,-8.00921 c 0.0886,-0.0676 0.15115,-0.13285 0.13897,-0.14504 -0.04,-0.04 -0.4133,0.17596 -0.38454,0.2225 0.0412,0.0666 0.0677,0.0582 0.24557,-0.0775 z m -1.78222,-4.677735 c 0,-0.0102 -0.0319,-0.0186 -0.0709,-0.0186 -0.039,0 -0.0709,0.0206 -0.0709,0.0458 0,0.0252 0.0319,0.0335 0.0709,0.0186 0.039,-0.0149 0.0709,-0.0356 0.0709,-0.0458 z m -2.50409,-4.34168 c 0.0638,-0.0769 0.0486,-0.0865 -0.067,-0.0422 -0.0411,0.0158 -0.0747,0.0477 -0.0747,0.0709 0,0.0654 0.0766,0.0499 0.14175,-0.0287 z"
         id="path1570" />
    </g>
  </g>
</svg>
