<?xml version="1.0" encoding="UTF-8" standalone="no"?>
<svg
   xmlns:osb="http://www.openswatchbook.org/uri/2009/osb"
   xmlns:dc="http://purl.org/dc/elements/1.1/"
   xmlns:cc="http://creativecommons.org/ns#"
   xmlns:rdf="http://www.w3.org/1999/02/22-rdf-syntax-ns#"
   xmlns:svg="http://www.w3.org/2000/svg"
   xmlns="http://www.w3.org/2000/svg"
   xmlns:xlink="http://www.w3.org/1999/xlink"
   xmlns:sodipodi="http://sodipodi.sourceforge.net/DTD/sodipodi-0.dtd"
   xmlns:inkscape="http://www.inkscape.org/namespaces/inkscape"
   width="41.431416mm"
   height="67.199638mm"
   viewBox="0 0 41.431415 67.199639"
   version="1.1"
   id="svg8"
   inkscape:version="1.0.1 (3bc2e813f5, 2020-09-07)"
   sodipodi:docname="Vacuole.svg">
  <defs
     id="defs2">
    <inkscape:path-effect
       effect="powerstroke"
       id="path-effect68"
       is_visible="true"
       lpeversion="1"
       offset_points="1.1473914,1.7717634"
       sort_points="true"
       interpolator_type="CentripetalCatmullRom"
       interpolator_beta="0.75"
       start_linecap_type="round"
       linejoin_type="spiro"
       miter_limit="4"
       scale_width="1"
       end_linecap_type="round" />
    <inkscape:path-effect
       effect="simplify"
       id="path-effect66"
       is_visible="true"
       lpeversion="1"
       steps="1"
       threshold="0.012723493"
       smooth_angles="0"
       helper_size="0"
       simplify_individual_paths="false"
       simplify_just_coalesce="false"
       step="1" />
    <linearGradient
       id="linearGradient933"
       osb:paint="gradient">
      <stop
         style="stop-color:#c1f0ff;stop-opacity:1;"
         offset="0"
         id="stop929" />
      <stop
         style="stop-color:#c1f0ff;stop-opacity:0;"
         offset="1"
         id="stop931" />
    </linearGradient>
    <inkscape:path-effect
       effect="powerstroke"
       id="path-effect869"
       is_visible="true"
       lpeversion="1"
       offset_points="1.1473914,1.7717634"
       sort_points="true"
       interpolator_type="CentripetalCatmullRom"
       interpolator_beta="0.75"
       start_linecap_type="round"
       linejoin_type="spiro"
       miter_limit="4"
       scale_width="1"
       end_linecap_type="round" />
    <inkscape:path-effect
       effect="simplify"
       id="path-effect867"
       is_visible="true"
       lpeversion="1"
       steps="1"
       threshold="0.012723493"
       smooth_angles="0"
       helper_size="0"
       simplify_individual_paths="false"
       simplify_just_coalesce="false"
       step="1" />
    <inkscape:path-effect
       effect="powerstroke"
       id="path-effect862"
       is_visible="true"
       lpeversion="1"
       offset_points="1.302872,3.189174"
       sort_points="true"
       interpolator_type="CentripetalCatmullRom"
       interpolator_beta="0.75"
       start_linecap_type="round"
       linejoin_type="spiro"
       miter_limit="4"
       scale_width="1"
       end_linecap_type="round" />
    <inkscape:path-effect
       effect="simplify"
       id="path-effect860"
       is_visible="true"
       lpeversion="1"
       steps="1"
       threshold="0.012723493"
       smooth_angles="0"
       helper_size="0"
       simplify_individual_paths="false"
       simplify_just_coalesce="false"
       step="1" />
    <inkscape:path-effect
       effect="powerstroke"
       id="path-effect855"
       is_visible="true"
       lpeversion="1"
       offset_points="1.3056455,3.189174"
       sort_points="true"
       interpolator_type="CentripetalCatmullRom"
       interpolator_beta="0.75"
       start_linecap_type="round"
       linejoin_type="spiro"
       miter_limit="4"
       scale_width="1"
       end_linecap_type="round" />
    <inkscape:path-effect
       effect="simplify"
       id="path-effect853"
       is_visible="true"
       lpeversion="1"
       steps="1"
       threshold="0.012723493"
       smooth_angles="0"
       helper_size="0"
       simplify_individual_paths="false"
       simplify_just_coalesce="false"
       step="1" />
    <inkscape:path-effect
       effect="powerstroke"
       id="path-effect17"
       is_visible="true"
       lpeversion="1"
       offset_points="1.2895823,7.0870534"
       sort_points="true"
       interpolator_type="CentripetalCatmullRom"
       interpolator_beta="0.75"
       start_linecap_type="round"
       linejoin_type="spiro"
       miter_limit="4"
       scale_width="1"
       end_linecap_type="round" />
    <inkscape:path-effect
       effect="simplify"
       id="path-effect15"
       is_visible="true"
       lpeversion="1"
       steps="1"
       threshold="0.012723493"
       smooth_angles="0"
       helper_size="0"
       simplify_individual_paths="false"
       simplify_just_coalesce="false"
       step="1" />
    <inkscape:path-effect
       effect="bspline"
       id="path-effect12"
       is_visible="true"
       lpeversion="1"
       weight="33.333333"
       steps="2"
       helper_size="0"
       apply_no_weight="true"
       apply_with_weight="true"
       only_selected="false" />
    <linearGradient
       inkscape:collect="always"
       xlink:href="#linearGradient933"
       id="linearGradient937"
       x1="258.80539"
       y1="433.49316"
       x2="562.05951"
       y2="433.49316"
       gradientUnits="userSpaceOnUse"
       gradientTransform="matrix(0.26458333,0,0,0.26458333,33.845153,10.332822)" />
  </defs>
  <sodipodi:namedview
     id="base"
     pagecolor="#ffffff"
     bordercolor="#666666"
     borderopacity="1.0"
     inkscape:pageopacity="0.0"
     inkscape:pageshadow="2"
     inkscape:zoom="0.35"
     inkscape:cx="-697.8871"
     inkscape:cy="191.89012"
     inkscape:document-units="mm"
     inkscape:current-layer="layer1"
     inkscape:document-rotation="0"
     showgrid="false"
     inkscape:window-width="1500"
     inkscape:window-height="938"
     inkscape:window-x="-6"
     inkscape:window-y="-6"
     inkscape:window-maximized="1"
     fit-margin-top="0"
     fit-margin-left="0"
     fit-margin-right="0"
     fit-margin-bottom="0" />
  <metadata
     id="metadata5">
    <rdf:RDF>
      <cc:Work
         rdf:about="">
        <dc:format>image/svg+xml</dc:format>
        <dc:type
           rdf:resource="http://purl.org/dc/dcmitype/StillImage" />
        <dc:title></dc:title>
      </cc:Work>
    </rdf:RDF>
  </metadata>
  <g
     inkscape:label="Layer 1"
     inkscape:groupmode="layer"
     id="layer1"
     transform="translate(-121.48834,-89.221245)">
    <g
       inkscape:label="Layer 1"
       id="layer1-4"
       transform="matrix(0.48600146,0,0,0.53064704,72.957425,56.558659)"
       style="stroke-width:1.96914">
      <path
         d="m 175.34419,105.36065 c -0.0652,-2.53324 -0.24824,-8.703082 -1.10511,-15.112387 -0.6298,-4.710876 -1.76533,-10.726272 -3.98708,-15.975513 -0.98302,-2.322539 -2.22238,-4.601799 -3.80322,-6.57609 -1.48388,-1.853189 -3.30367,-3.48107 -5.53998,-4.597143 -2.12931,-1.062674 -4.596,-1.640583 -7.4323,-1.534764 -2.67897,0.09995 -5.66261,0.808274 -8.99691,2.261071 -2.62815,0.849422 -4.8861,2.027783 -6.79524,3.528429 -0.33809,0.265745 -0.66449,0.541015 -0.97944,0.825626 -1.37024,1.23825 -2.5628,2.688453 -3.56573,4.372427 -1.10593,1.856905 -1.95017,3.944774 -2.57108,6.273039 -0.56967,2.136113 -0.93983,4.429144 -1.17052,6.88678 -0.43318,4.614907 -0.34045,9.193597 -0.34989,14.318955 -0.004,2.27899 -0.0329,4.58291 -0.16741,6.77889 -0.12357,2.01712 -0.33727,3.96352 -0.70868,5.76923 -1.69185,2.88988 -3.9385,5.45977 -6.61042,8.06727 -2.57635,2.51424 -5.48927,4.98812 -8.33769,7.72853 -2.71265,2.60978 -5.42319,5.53182 -7.52849,9.01461 -1.03318,1.7092 -1.92875,3.56526 -2.61679,5.60713 -0.66293,1.96738 -1.13044,4.09893 -1.34658,6.4302 -0.94442,3.36334 -1.6358,7.53741 -1.82337,11.901 -0.187016,4.35084 0.12452,8.97056 1.24643,13.13533 0.55717,2.06831 1.32077,4.0486 2.3401,5.83353 1.0164,1.77977 2.29383,3.37671 3.88176,4.6642 1.58874,1.28814 3.46043,2.24338 5.63081,2.76824 2.1551,0.52117 4.5635,0.60839 7.23383,0.21754 7.92886,-0.93334 15.62287,-1.92458 23.36472,-2.35636 7.90182,-0.4407 15.54829,-0.27537 23.12147,1.04322 0.11314,0.0197 0.22738,0.0367 0.34219,0.0342 0.11482,-0.002 0.22822,-0.0244 0.34041,-0.0489 2.75075,-0.60179 5.14436,-1.53273 7.20247,-2.73452 2.0877,-1.21907 3.81576,-2.7085 5.21377,-4.39278 1.41912,-1.70972 2.48726,-3.60684 3.25188,-5.60569 0.77788,-2.03352 1.242,-4.17271 1.44632,-6.3385 0.42144,-4.46722 -0.25519,-9.09336 -1.63143,-13.35716 -1.41249,-4.37613 -3.56893,-8.41596 -6.1736,-11.77361 -1.10857,-4.76796 -1.51195,-9.57949 -1.64133,-14.1787 -0.14099,-5.01141 0.0441,-10.5002 0.12831,-15.0621 0.10405,-5.63852 0.0786,-10.46271 -0.37772,-15.245345 -0.56862,-5.959505 -1.7329,-10.817084 -3.38279,-15.085694 a 1.7717634,1.7717634 90 0 0 -3.30522,1.277524 c 1.52042,3.933648 2.6191,8.470456 3.16051,14.144745 0.43678,4.57776 0.46569,9.24051 0.36229,14.84337 -0.0826,4.47728 -0.27156,10.10652 -0.12751,15.22715 0.13639,4.84802 0.57129,10.05998 1.8263,15.28035 0.0302,0.12544 0.064,0.2509 0.12057,0.36687 0.0565,0.11597 0.13449,0.21994 0.21474,0.32096 2.44202,3.07449 4.49458,6.85655 5.82324,10.97293 1.25697,3.89433 1.84399,8.03293 1.47578,11.93589 -0.17789,1.88564 -0.57821,3.70634 -1.22811,5.40529 -0.63771,1.6671 -1.5172,3.22103 -2.66886,4.60852 -1.13275,1.3647 -2.5424,2.58483 -4.27398,3.59595 -1.63081,0.95228 -3.56331,1.72845 -5.84091,2.25799 -7.80425,-1.32349 -15.62198,-1.47362 -23.57612,-1.03001 -7.88761,0.43991 -15.72852,1.45091 -23.60683,2.37812 -0.0172,0.002 -0.0343,0.004 -0.0513,0.007 -2.30274,0.33951 -4.25144,0.2488 -5.91013,-0.15232 -1.65199,-0.3995 -3.04707,-1.11571 -4.23203,-2.07647 -1.19323,-0.96746 -2.20056,-2.20549 -3.03634,-3.66899 -0.84037,-1.47154 -1.50038,-3.15938 -1.99566,-4.99796 -1.00171,-3.71854 -1.30416,-7.95691 -1.12773,-12.06145 0.1794,-4.17358 0.84959,-8.13593 1.73663,-11.24337 0.031,-0.10864 0.0516,-0.22003 0.0614,-0.33259 0.18443,-2.1171 0.60062,-4.02771 1.18969,-5.77588 0.59732,-1.77267 1.37801,-3.39468 2.29131,-4.90556 1.871,-3.09518 4.32686,-5.76784 6.95272,-8.29413 2.73911,-2.63524 5.66349,-5.11867 8.35582,-7.74609 2.85832,-2.7894 5.41158,-5.69143 7.34909,-9.08194 0.0899,-0.15734 0.15519,-0.32763 0.19347,-0.50475 0.45752,-2.11669 0.7025,-4.34838 0.83854,-6.56918 0.14121,-2.30501 0.16982,-4.69483 0.17405,-6.98904 0.01,-5.233281 -0.0793,-9.587492 0.33438,-13.994297 0.21734,-2.315421 0.55991,-4.4058 1.06636,-6.304868 0.55076,-2.065191 1.27912,-3.840665 2.19169,-5.372913 0.82546,-1.38598 1.79413,-2.55986 2.89708,-3.556563 0.25458,-0.230057 0.51893,-0.453031 0.79343,-0.668793 1.56293,-1.228513 3.46088,-2.229074 5.77197,-2.967215 0.0587,-0.01874 0.11633,-0.04053 0.17273,-0.06527 3.04887,-1.33753 5.6176,-1.920821 7.78975,-2.001862 2.25523,-0.08414 4.13085,0.37229 5.71784,1.164307 1.6837,0.840279 3.12072,2.098312 4.35626,3.641364 1.32198,1.651002 2.40953,3.624344 3.30602,5.74244 2.03796,4.815007 3.12289,10.462379 3.73807,15.063895 0.83015,6.209488 1.01031,12.219457 1.07503,14.734007 a 1.7717634,1.7717634 90 0 0 3.54236,-0.0912 z"
         id="path-1-44"
         inkscape:path-effect="#path-effect66;#path-effect68"
         inkscape:original-d="m 173.57301,105.40624 c -1.76312,-11.677917 -0.63514,-46.89925 -21.92262,-41.577379 -5.80313,1.450783 -11.96926,2.351875 -15.875,7.559524 -8.89405,11.858729 -1.73954,36.413125 -7.55953,46.113095 -5.40669,9.01115 -10.62051,5.90511 -14.36309,10.58333 -5.34142,6.67678 -10.70816,20.40371 -12.09524,28.72619 -0.77368,4.64209 1.09963,25.09372 6.04762,27.21429 12.32277,5.28118 27.40887,-0.75595 40.06548,-0.75595 16.28522,0 23.21862,8.34855 34.77381,-12.09524 5.5613,-9.83923 -5.22907,-19.03684 -7.55953,-27.97024 -0.89953,-3.4482 -1.18927,-7.03438 -1.5119,-10.58333 -1.19224,-13.1146 1.98764,-37.602099 -3.77976,-49.136907"
         style="fill:#c1f0ff;fill-opacity:1;fill-rule:nonzero;stroke:none;stroke-width:1.96914px;stroke-linecap:butt;stroke-linejoin:miter;stroke-opacity:1" />
      <path
         style="fill:#ffffff;fill-rule:evenodd;stroke:#c1f0ff;stroke-width:21.8023;stroke-linecap:round;stroke-linejoin:round"
         d="m 423.97384,694.46909 c -14.99954,-5.86499 -24.63749,-18.70455 -27.58753,-36.75175 -0.74393,-4.55107 -1.90933,-11.68394 -2.58977,-15.85082 -0.68045,-4.16688 -1.44885,-15.57641 -1.70755,-25.35453 -0.77524,-29.30105 2.53835,-44.60685 16.93449,-78.2222 14.67494,-34.26635 22.29957,-46.58939 34.0184,-54.98107 3.15879,-2.26195 8.57663,-4.98779 12.03965,-6.05741 10.36712,-3.20207 16.67489,-7.00408 24.18382,-14.57681 7.74243,-7.80822 14.00192,-18.55934 17.11979,-29.40448 3.99548,-13.89784 4.6334,-21.60311 5.51963,-66.67007 0.91465,-46.51256 1.67982,-55.13819 6.18823,-69.75869 4.24629,-13.77051 11.5684,-25.06386 20.60148,-31.77496 5.32203,-3.95399 20.04309,-10.08137 35.37623,-14.72473 7.68728,-2.32796 11.0391,-2.76695 21.73032,-2.84607 12.33888,-0.0913 12.80271,-0.0141 19.40304,3.23187 4.05295,1.99317 8.23378,5.02837 10.43572,7.57614 8.16267,9.44466 16.07436,25.70638 20.68732,42.52078 l 2.09344,7.63066 -2.2937,3.1024 -2.29369,3.1024 2.74416,7.78736 c 4.82543,13.69349 6.8356,23.46977 9.07859,44.15284 1.96552,18.1244 2.20212,26.07524 2.29961,77.27667 0.11146,58.54269 0.41688,64.42406 4.5606,87.82148 2.52771,14.2726 5.65684,22.22135 17.12368,43.49835 11.38787,21.13046 14.82667,28.74837 17.24412,38.20051 3.74696,14.65049 2.23883,21.9471 -8.1811,39.58124 -8.27261,14.00014 -15.75425,22.48534 -25.67886,29.12332 -15.12052,10.11322 -29.25812,12.37688 -48.84652,7.8211 -25.66948,-5.97009 -47.10793,-5.77179 -96.40237,0.89169 -33.72549,4.55892 -45.74149,5.60228 -63.91462,5.54975 -12.22015,-0.0354 -16.06844,-0.40202 -19.88661,-1.89497 z"
         id="path846"
         transform="scale(0.26458333)" />
      <path
         style="fill:url(#linearGradient937);fill-opacity:1;fill-rule:evenodd;stroke:#c1f0ff;stroke-width:5.71053;stroke-linecap:round;stroke-linejoin:round;stroke-miterlimit:4;stroke-dasharray:none;stroke-opacity:1"
         d="m 112.17641,183.74494 c -6.20401,-1.70678 -8.40566,-7.23017 -8.40566,-21.08772 v -10.20536 l 3.25601,-7.9375 c 1.79082,-4.36562 4.28637,-9.54368 5.54569,-11.5068 2.24951,-3.5067 6.1868,-6.63605 8.34937,-6.63605 1.97075,0 7.19226,-5.16813 8.9533,-8.86177 1.53655,-3.22279 1.78421,-5.25668 2.30136,-18.899466 0.86432,-22.80141 2.74209,-27.197541 13.17165,-30.836671 7.24787,-2.528961 12.38328,-2.492436 15.47619,0.110069 3.39119,2.853508 6.32758,8.961411 6.49431,13.508673 0.0762,2.078868 0.71793,5.820833 1.42601,8.315476 0.99863,3.518251 1.42926,9.62303 1.91971,27.214289 0.34775,12.47321 1.00798,24.14279 1.46718,25.93238 0.4592,1.7896 2.5638,6.56679 4.67688,10.61597 4.93046,9.44796 5.40969,12.88387 2.53396,18.16753 -4.28801,7.87848 -10.67574,12.037 -17.12548,11.149 -9.47237,-1.30418 -18.52001,-1.37704 -28.03832,-0.22579 -13.08522,1.58268 -19.33066,1.91869 -22.00216,1.18374 z"
         id="path873" />
    </g>
  </g>
</svg>
