<?xml version="1.0" encoding="UTF-8" standalone="no"?>
<svg
   xmlns:osb="http://www.openswatchbook.org/uri/2009/osb"
   xmlns:dc="http://purl.org/dc/elements/1.1/"
   xmlns:cc="http://creativecommons.org/ns#"
   xmlns:rdf="http://www.w3.org/1999/02/22-rdf-syntax-ns#"
   xmlns:svg="http://www.w3.org/2000/svg"
   xmlns="http://www.w3.org/2000/svg"
   xmlns:xlink="http://www.w3.org/1999/xlink"
   xmlns:sodipodi="http://sodipodi.sourceforge.net/DTD/sodipodi-0.dtd"
   xmlns:inkscape="http://www.inkscape.org/namespaces/inkscape"
   width="86.037628mm"
   height="126.43419mm"
   viewBox="0 0 86.037628 126.43419"
   version="1.1"
   id="svg8"
   inkscape:version="1.0.1 (3bc2e813f5, 2020-09-07)"
   sodipodi:docname="Vacuole.svg">
  <defs
     id="defs2">
    <linearGradient
       id="linearGradient933"
       osb:paint="gradient">
      <stop
         style="stop-color:#c1f0ff;stop-opacity:1;"
         offset="0"
         id="stop929" />
      <stop
         style="stop-color:#c1f0ff;stop-opacity:0;"
         offset="1"
         id="stop931" />
    </linearGradient>
    <inkscape:path-effect
       effect="powerstroke"
       id="path-effect869"
       is_visible="true"
       lpeversion="1"
       offset_points="1.1473914,1.7717634"
       sort_points="true"
       interpolator_type="CentripetalCatmullRom"
       interpolator_beta="0.75"
       start_linecap_type="round"
       linejoin_type="spiro"
       miter_limit="4"
       scale_width="1"
       end_linecap_type="round" />
    <inkscape:path-effect
       effect="simplify"
       id="path-effect867"
       is_visible="true"
       lpeversion="1"
       steps="1"
       threshold="0.012723493"
       smooth_angles="0"
       helper_size="0"
       simplify_individual_paths="false"
       simplify_just_coalesce="false"
       step="1" />
    <inkscape:path-effect
       effect="powerstroke"
       id="path-effect862"
       is_visible="true"
       lpeversion="1"
       offset_points="1.302872,3.189174"
       sort_points="true"
       interpolator_type="CentripetalCatmullRom"
       interpolator_beta="0.75"
       start_linecap_type="round"
       linejoin_type="spiro"
       miter_limit="4"
       scale_width="1"
       end_linecap_type="round" />
    <inkscape:path-effect
       effect="simplify"
       id="path-effect860"
       is_visible="true"
       lpeversion="1"
       steps="1"
       threshold="0.012723493"
       smooth_angles="0"
       helper_size="0"
       simplify_individual_paths="false"
       simplify_just_coalesce="false"
       step="1" />
    <inkscape:path-effect
       effect="powerstroke"
       id="path-effect855"
       is_visible="true"
       lpeversion="1"
       offset_points="1.3056455,3.189174"
       sort_points="true"
       interpolator_type="CentripetalCatmullRom"
       interpolator_beta="0.75"
       start_linecap_type="round"
       linejoin_type="spiro"
       miter_limit="4"
       scale_width="1"
       end_linecap_type="round" />
    <inkscape:path-effect
       effect="simplify"
       id="path-effect853"
       is_visible="true"
       lpeversion="1"
       steps="1"
       threshold="0.012723493"
       smooth_angles="0"
       helper_size="0"
       simplify_individual_paths="false"
       simplify_just_coalesce="false"
       step="1" />
    <inkscape:path-effect
       effect="powerstroke"
       id="path-effect17"
       is_visible="true"
       lpeversion="1"
       offset_points="1.2895823,7.0870534"
       sort_points="true"
       interpolator_type="CentripetalCatmullRom"
       interpolator_beta="0.75"
       start_linecap_type="round"
       linejoin_type="spiro"
       miter_limit="4"
       scale_width="1"
       end_linecap_type="round" />
    <inkscape:path-effect
       effect="simplify"
       id="path-effect15"
       is_visible="true"
       lpeversion="1"
       steps="1"
       threshold="0.012723493"
       smooth_angles="0"
       helper_size="0"
       simplify_individual_paths="false"
       simplify_just_coalesce="false"
       step="1" />
    <inkscape:path-effect
       effect="bspline"
       id="path-effect12"
       is_visible="true"
       lpeversion="1"
       weight="33.333333"
       steps="2"
       helper_size="0"
       apply_no_weight="true"
       apply_with_weight="true"
       only_selected="false" />
    <linearGradient
       inkscape:collect="always"
       xlink:href="#linearGradient933"
       id="linearGradient937"
       x1="258.80539"
       y1="433.49316"
       x2="562.05951"
       y2="433.49316"
       gradientUnits="userSpaceOnUse"
       gradientTransform="matrix(0.26458333,0,0,0.26458333,33.845153,10.332822)" />
  </defs>
  <sodipodi:namedview
     id="base"
     pagecolor="#ffffff"
     bordercolor="#666666"
     borderopacity="1.0"
     inkscape:pageopacity="0.0"
     inkscape:pageshadow="2"
     inkscape:zoom="0.24748737"
     inkscape:cx="-1015.35"
     inkscape:cy="1326.4459"
     inkscape:document-units="mm"
     inkscape:current-layer="layer1"
     inkscape:document-rotation="0"
     showgrid="false"
     inkscape:window-width="1500"
     inkscape:window-height="938"
     inkscape:window-x="-6"
     inkscape:window-y="-6"
     inkscape:window-maximized="1"
     fit-margin-top="0"
     fit-margin-left="0"
     fit-margin-right="0"
     fit-margin-bottom="0" />
  <metadata
     id="metadata5">
    <rdf:RDF>
      <cc:Work
         rdf:about="">
        <dc:format>image/svg+xml</dc:format>
        <dc:type
           rdf:resource="http://purl.org/dc/dcmitype/StillImage" />
        <dc:title></dc:title>
      </cc:Work>
    </rdf:RDF>
  </metadata>
  <g
     inkscape:label="Layer 1"
     inkscape:groupmode="layer"
     id="layer1"
     transform="translate(-99.870707,-61.588919)">
    <path
       d="m 175.32611,105.14975 c -0.40837,-2.79122 -0.63634,-5.325144 -1.02325,-10.013511 -0.23079,-2.796541 -0.54945,-6.743781 -1.11619,-10.411566 -0.48317,-3.126909 -1.23051,-6.690324 -2.57042,-10.186749 -1.17485,-3.065724 -2.87361,-6.271071 -5.46983,-9.261501 -0.0491,-0.05661 -0.10184,-0.110047 -0.15775,-0.159982 -0.94117,-0.840484 -1.964,-1.533585 -3.06714,-2.076176 -0.19138,-0.09413 -0.38482,-0.183561 -0.58031,-0.268325 -0.8474,-0.367428 -1.75675,-0.65742 -2.73278,-0.858251 -2.07293,-0.42653 -4.33312,-0.428582 -6.80734,-0.03178 -2.13238,0.341979 -4.31381,0.961065 -6.56589,1.760756 -2.05092,0.72826 -3.9708,1.535617 -5.89975,2.342517 -0.0977,0.04085 -0.19149,0.09039 -0.28032,0.147994 -2.70482,1.754132 -4.75783,4.03138 -6.25888,6.749291 -1.40135,2.537372 -2.27724,5.375311 -2.81668,8.395612 -0.51238,2.868787 -0.7135,5.852284 -0.79873,8.8589 -0.0812,2.865753 -0.0542,5.721845 -0.11732,8.368397 -6.2e-4,0.02617 -6.7e-4,0.05235 -1.3e-4,0.07852 0.0453,2.215145 0.0851,4.648095 -0.0326,7.075305 -0.11464,2.36298 -0.37904,4.74094 -0.93678,6.95824 -0.54326,2.15972 -1.35907,4.14481 -2.56944,5.82093 -0.59397,0.82252 -1.28699,1.57648 -2.09875,2.24538 -0.7598,0.62609 -1.63353,1.18585 -2.64369,1.65879 -1.23932,0.26279 -2.39029,0.65813 -3.46031,1.17107 -1.11998,0.53688 -2.13911,1.19674 -3.07065,1.95377 -1.83936,1.4948 -3.31801,3.35247 -4.56651,5.35746 -1.23073,1.97645 -2.25096,4.11767 -3.17666,6.22982 -0.91706,2.09244 -1.74756,4.16894 -2.59458,6.04296 -0.001,0.003 -0.003,0.006 -0.004,0.009 -3.948247,8.87084 -5.084268,18.77777 -3.04131,28.46184 0.0565,2.24622 0.46149,4.43559 1.19673,6.44948 0.75536,2.06898 1.86349,3.96343 3.31013,5.53838 1.45474,1.58378 3.24422,2.83541 5.33172,3.60658 2.06385,0.76244 4.37015,1.03726 6.86234,0.74636 3.61887,0.0848 7.19825,-0.20448 10.69513,-0.61721 3.58188,-0.42276 7.10213,-0.97597 10.56293,-1.42362 3.5158,-0.45475 6.93305,-0.79762 10.32603,-0.82256 3.42048,-0.0251 6.76729,0.27424 10.08281,1.08768 2.56664,0.76888 5.08991,0.92535 7.48054,0.60311 2.45249,-0.33058 4.74934,-1.16217 6.81766,-2.3351 2.11966,-1.20204 4.00842,-2.76693 5.61243,-4.54854 1.61229,-1.79082 2.94527,-3.80902 3.95822,-5.93708 0.99604,-1.37752 1.6977,-2.76937 2.15018,-4.16938 0.47686,-1.47546 0.66869,-2.93446 0.65266,-4.35991 -0.0163,-1.44988 -0.24756,-2.85987 -0.60702,-4.21332 -0.36684,-1.38121 -0.87325,-2.72559 -1.44,-4.01412 -1.14213,-2.59672 -2.67925,-5.27529 -3.9171,-7.5509 -1.37466,-2.52713 -2.48765,-4.7391 -3.14861,-6.87274 -1.16489,-4.86777 -1.58399,-9.79019 -1.71643,-14.49678 -0.14097,-5.00962 0.0431,-10.46151 0.12796,-15.06611 0.1023,-5.55321 0.0826,-10.42073 -0.37799,-15.247841 -0.5462,-5.724252 -1.6582,-10.622317 -3.38249,-15.080628 a 1.7717634,1.7717634 90 0 0 -3.30496,1.278224 c 1.58977,4.110486 2.63952,8.684772 3.15995,14.138992 0.44093,4.621053 0.46425,9.326023 0.36256,14.845983 -0.0833,4.52043 -0.2712,10.1123 -0.12716,15.23106 0.13656,4.85282 0.57194,10.06343 1.82613,15.27931 0.008,0.0353 0.0181,0.0704 0.0287,0.10508 0.77277,2.52079 2.04825,5.021 3.43953,7.57869 1.29883,2.38771 2.7225,4.86578 3.78626,7.28433 0.51656,1.17443 0.95185,2.34117 1.25884,3.49704 0.30019,1.13028 0.47615,2.2442 0.48852,3.34358 0.0121,1.0741 -0.13164,2.14886 -0.48115,3.23029 -0.34326,1.06205 -0.8951,2.16202 -1.73392,3.29782 -0.0699,0.0946 -0.13014,0.19592 -0.17992,0.30244 -0.87703,1.87665 -2.04355,3.65591 -3.45625,5.22502 -1.37179,1.52369 -2.96714,2.83913 -4.72694,3.83711 -1.71522,0.97268 -3.58285,1.64149 -5.54304,1.90571 -1.91555,0.25821 -3.94278,0.13324 -6.02722,-0.49694 -0.0292,-0.009 -0.0587,-0.0169 -0.0884,-0.0242 -3.67596,-0.90686 -7.33976,-1.22817 -11.00043,-1.20127 -3.60403,0.0265 -7.18508,0.39005 -10.75454,0.85174 -3.52426,0.45585 -7.03246,1.00671 -10.5237,1.41877 -3.45896,0.40825 -6.89483,0.67951 -10.3185,0.59075 -0.0885,-0.002 -0.17706,0.002 -0.2649,0.013 -2.02169,0.2518 -3.79898,0.0281 -5.33081,-0.53775 -1.5248,-0.5633 -2.84959,-1.48174 -3.94995,-2.67969 -1.09936,-1.19688 -1.97827,-2.67767 -2.5912,-4.35654 -0.61194,-1.67614 -0.95297,-3.53484 -0.98606,-5.46958 -0.002,-0.11493 -0.0151,-0.22941 -0.0393,-0.34179 -1.93034,-8.98691 -0.89355,-18.19078 2.77657,-26.43926 0.89219,-1.97434 1.72321,-4.05432 2.60895,-6.0753 0.90144,-2.0568 1.84193,-4.0171 2.93917,-5.77916 1.10985,-1.78234 2.34527,-3.30381 3.7933,-4.48059 0.73026,-0.59346 1.51524,-1.09977 2.36759,-1.50837 0.85952,-0.41202 1.79694,-0.7292 2.82852,-0.9338 0.13233,-0.0262 0.26128,-0.0675 0.38424,-0.12304 1.36527,-0.61625 2.56383,-1.36919 3.61293,-2.23367 1.05983,-0.87332 1.9579,-1.85284 2.7181,-2.90555 1.54335,-2.13722 2.51391,-4.56936 3.13313,-7.03105 0.63518,-2.52518 0.91861,-5.15577 1.03966,-7.65094 0.12363,-2.5483 0.0818,-5.07783 0.0369,-7.280415 0.064,-2.721327 0.0376,-5.547348 0.11598,-8.313113 0.083,-2.928546 0.27675,-5.714889 0.74495,-8.33627 0.49196,-2.754492 1.26621,-5.197836 2.43025,-7.305524 1.20872,-2.188609 2.82695,-3.994616 4.95546,-5.404409 1.89009,-0.790723 3.67452,-1.537147 5.56732,-2.20926 2.12423,-0.754291 4.08787,-1.303953 5.94129,-1.601193 2.14136,-0.343421 3.96028,-0.319631 5.53205,0.0038 0.74018,0.152301 1.41626,0.369232 2.03728,0.638504 0.14366,0.06229 0.28565,0.127938 0.426,0.196969 0.77424,0.380817 1.50311,0.866957 2.18818,1.466445 2.22788,2.589941 3.71268,5.382351 4.76163,8.119534 1.21504,3.170586 1.91406,6.461721 2.37733,9.45984 0.54399,3.520529 0.85354,7.337399 1.08664,10.161889 0.38676,4.686495 0.62226,7.321175 1.04857,10.235045 a 1.7717634,1.7717634 90 0 0 3.5062,-0.51298 z"
       id="path-1"
       inkscape:path-effect="#path-effect867;#path-effect869"
       inkscape:original-d="m 173.57301,105.40624 c -1.76312,-11.677917 -0.63514,-46.89925 -21.92262,-41.577379 -5.80313,1.450783 -11.96926,2.351875 -15.875,7.559524 -8.89405,11.858729 -1.73954,36.413125 -7.55953,46.113095 -5.40669,9.01115 -10.62051,5.90511 -14.36309,10.58333 -5.34142,6.67678 -10.70816,20.40371 -12.09524,28.72619 -0.77368,4.64209 1.09963,25.09372 6.04762,27.21429 12.32277,5.28118 27.40887,-0.75595 40.06548,-0.75595 16.28522,0 23.21862,8.34855 34.77381,-12.09524 5.5613,-9.83923 -5.22907,-19.03684 -7.55953,-27.97024 -0.89953,-3.4482 -1.18927,-7.03438 -1.5119,-10.58333 -1.19224,-13.1146 1.98764,-37.602099 -3.77976,-49.136907"
       style="fill:#c1f0ff;fill-opacity:1;fill-rule:nonzero;stroke:none;stroke-width:1px;stroke-linecap:butt;stroke-linejoin:miter;stroke-opacity:1" />
    <path
       style="fill:#ffffff;fill-rule:evenodd;stroke:#c1f0ff;stroke-width:11.0719;stroke-linecap:round;stroke-linejoin:round"
       d="m 423.97384,694.46909 c -14.99954,-5.86499 -24.63749,-18.70455 -27.58753,-36.75175 -0.74393,-4.55107 -1.90933,-11.68394 -2.58977,-15.85082 -0.68045,-4.16688 -1.44885,-15.57641 -1.70755,-25.35453 -0.77524,-29.30105 2.53835,-44.60685 16.93449,-78.2222 14.67494,-34.26635 22.29957,-46.58939 34.0184,-54.98107 3.15879,-2.26195 8.57663,-4.98779 12.03965,-6.05741 10.36712,-3.20207 16.67489,-7.00408 24.18382,-14.57681 7.74243,-7.80822 14.00192,-18.55934 17.11979,-29.40448 3.99548,-13.89784 4.6334,-21.60311 5.51963,-66.67007 0.91465,-46.51256 1.67982,-55.13819 6.18823,-69.75869 4.24629,-13.77051 11.5684,-25.06386 20.60148,-31.77496 5.32203,-3.95399 20.04309,-10.08137 35.37623,-14.72473 7.68728,-2.32796 11.0391,-2.76695 21.73032,-2.84607 12.33888,-0.0913 12.80271,-0.0141 19.40304,3.23187 4.05295,1.99317 8.23378,5.02837 10.43572,7.57614 8.16267,9.44466 16.07436,25.70638 20.68732,42.52078 l 2.09344,7.63066 -2.2937,3.1024 -2.29369,3.1024 2.74416,7.78736 c 4.82543,13.69349 6.8356,23.46977 9.07859,44.15284 1.96552,18.1244 2.20212,26.07524 2.29961,77.27667 0.11146,58.54269 0.41688,64.42406 4.5606,87.82148 2.52771,14.2726 5.65684,22.22135 17.12368,43.49835 11.38787,21.13046 14.82667,28.74837 17.24412,38.20051 3.74696,14.65049 2.23883,21.9471 -8.1811,39.58124 -8.27261,14.00014 -15.75425,22.48534 -25.67886,29.12332 -15.12052,10.11322 -29.25812,12.37688 -48.84652,7.8211 -25.66948,-5.97009 -47.10793,-5.77179 -96.40237,0.89169 -33.72549,4.55892 -45.74149,5.60228 -63.91462,5.54975 -12.22015,-0.0354 -16.06844,-0.40202 -19.88661,-1.89497 z"
       id="path846"
       transform="scale(0.26458333)" />
    <path
       style="fill:url(#linearGradient937);fill-opacity:1;fill-rule:evenodd;stroke:#c1f0ff;stroke-width:2.9;stroke-linecap:round;stroke-linejoin:round;stroke-miterlimit:4;stroke-dasharray:none;stroke-opacity:1"
       d="m 112.17641,183.74494 c -6.20401,-1.70678 -8.40566,-7.23017 -8.40566,-21.08772 v -10.20536 l 3.25601,-7.9375 c 1.79082,-4.36562 4.28637,-9.54368 5.54569,-11.5068 2.24951,-3.5067 6.1868,-6.63605 8.34937,-6.63605 1.97075,0 7.19226,-5.16813 8.9533,-8.86177 1.53655,-3.22279 1.78421,-5.25668 2.30136,-18.899466 0.86432,-22.80141 2.74209,-27.197541 13.17165,-30.836671 7.24787,-2.528961 12.38328,-2.492436 15.47619,0.110069 3.39119,2.853508 6.32758,8.961411 6.49431,13.508673 0.0762,2.078868 0.71793,5.820833 1.42601,8.315476 0.99863,3.518251 1.42926,9.62303 1.91971,27.214289 0.34775,12.47321 1.00798,24.14279 1.46718,25.93238 0.4592,1.7896 2.5638,6.56679 4.67688,10.61597 4.93046,9.44796 5.40969,12.88387 2.53396,18.16753 -4.28801,7.87848 -10.67574,12.037 -17.12548,11.149 -9.47237,-1.30418 -18.52001,-1.37704 -28.03832,-0.22579 -13.08522,1.58268 -19.33066,1.91869 -22.00216,1.18374 z"
       id="path873" />
  </g>
</svg>
